{"title":"Rabies (Kalevet) 2010 English Subtitles DVDRip Xvid BigPerm LKRG","uid":7154797,"size":758734044,"categoryP":"video","categoryS":"movies","magnet":"?xt=urn:btih:ce0817df9db7328721c4d49a1cff5921c8c42e22&amp;dn=Rabies+%28Kalevet%29+2010+English+Subtitles+DVDRip+Xvid+BigPerm+LKRG&amp;tr=udp%3A%2F%2Ftracker.openbittorrent.com%3A80&amp;tr=udp%3A%2F%2Fopen.demonii.com%3A1337&amp;tr=udp%3A%2F%2Ftracker.coppersurfer.tk%3A6969&amp;tr=udp%3A%2F%2Fexodus.desync.com%3A6969","seeders":2,"leechers":0,"uploader":".BONE.","files":2,"time":1333422649,"description":"PLOT\n\nA brother and sister who run away from home find sanctuary in a deserted nature reserve. When the sister falls\ninto the trap of a psychopathic killer, the brother sets out on a race against time to find help.\n\n\nEncoded By .......: BigPerm\nRuntime ..........: 1h 33mn\nFile Size ........: 724 MB\nResolution .......: 720 x 384 &lt;a href=&quot;\nhttp://www.imdb.com/title/tt1754000/&quot; rel=&quot;nofollow&quot; target=&quot;_NEW&quot;&gt;\nhttp://www.imdb.com/title/tt1754000/&lt;/a&gt;\nGenre ............: Horror\nLanguage .........: Hebrew\nSubtitles ........: English\nVideo\nID : 0\nFormat : MPEG-4 Visual\nFormat profile : Advanced Simple@L5\nFormat settings, BVOP : Yes\nFormat settings, QPel : No\nFormat settings, GMC : No warppoints\nFormat settings, Matrix : Default (H.263)\nMuxing mode : Packed bitstream\nCodec ID : XVID\nCodec ID/Hint : XviD\nDuration : 1h 33mn\nBit rate : 845 Kbps\nWidth : 720 pixels\nHeight : 384 pixels\nDisplay aspect ratio : 1.875\nFrame rate : 29.970 fps\nColor space : YUV\nChroma subsampling : 4:2:0\nBit depth : 8 bits\nScan type : Progressive\nCompression mode : Lossy\nBits/(Pixel*Frame) : 0.102\nStream size : 566 MiB (78%)\nWriting library : XviD 1.2.1 (UTC 2008-12-04)\nAudio\nID : 1\nFormat : AC-3\nFormat/Info : Audio Coding 3\nMode extension : CM (complete main)\nCodec ID : 2000\nDuration : 1h 33mn\nBit rate mode : Constant\nBit rate : 224 Kbps\nChannel(s) : 2 channels\nChannel positions : Front: L R\nSampling rate : 48.0 KHz\nBit depth : 16 bits\nCompression mode : Lossy\nStream size : 150 MiB (21%)\nAlignment : Split accross interleaves\nInterleave, duration : 33 ms (1.00 video frame)\nInterleave, preload duration : 500 ms\n","torrent":{"xt":"urn:btih:ce0817df9db7328721c4d49a1cff5921c8c42e22","amp;dn":"Rabies+%28Kalevet%29+2010+English+Subtitles+DVDRip+Xvid+BigPerm+LKRG","amp;tr":["udp%3A%2F%2Ftracker.openbittorrent.com%3A80","udp%3A%2F%2Fopen.demonii.com%3A1337","udp%3A%2F%2Ftracker.coppersurfer.tk%3A6969","udp%3A%2F%2Fexodus.desync.com%3A6969"],"infoHash":"ce0817df9db7328721c4d49a1cff5921c8c42e22","infoHashBuffer":{"type":"Buffer","data":[206,8,23,223,157,183,50,135,33,196,212,154,28,255,89,33,200,196,46,34]},"announce":[],"urlList":[]}}